<?xml version="1.0" standalone="no"?>
<!DOCTYPE svg PUBLIC "-//W3C//DTD SVG 20010904//EN"
 "http://www.w3.org/TR/2001/REC-SVG-20010904/DTD/svg10.dtd">
<svg version="1.0" xmlns="http://www.w3.org/2000/svg"
 width="1024.000000pt" height="1024.000000pt" viewBox="0 0 1024.000000 1024.000000"
 preserveAspectRatio="xMidYMid meet">
<metadata>
Created by potrace 1.14, written by Peter Selinger 2001-2017
</metadata>
<g transform="translate(0.000000,1024.000000) scale(0.100000,-0.100000)"
fill="#000000" stroke="none">
<path d="M3055 10224 c-33 -8 -73 -22 -90 -31 -16 -9 -31 -16 -33 -14 -8 7
-117 -64 -166 -110 -47 -43 -140 -167 -141 -188 -1 -3 -6 -15 -12 -26 -18 -33
-42 -126 -47 -182 -2 -28 -7 -57 -11 -62 -3 -6 -1 -11 5 -11 8 0 8 -6 0 -20
-8 -14 -8 -20 0 -20 8 0 8 -6 0 -20 -8 -14 -8 -20 0 -20 8 0 8 -6 0 -20 -8
-14 -8 -20 0 -20 8 0 8 -6 0 -20 -8 -14 -8 -20 0 -20 8 0 8 -6 0 -20 -8 -14
-8 -20 0 -20 8 0 8 -6 0 -20 -8 -14 -8 -20 0 -20 8 0 8 -6 0 -20 -8 -14 -8
-20 0 -20 8 0 8 -6 0 -20 -8 -14 -8 -20 0 -20 8 0 8 -6 0 -20 -8 -14 -8 -20 0
-20 8 0 8 -6 0 -20 -8 -14 -8 -20 0 -20 8 0 8 -6 0 -20 -8 -14 -8 -20 0 -20 7
0 8 -6 1 -18 -7 -13 -7 -22 0 -29 8 -8 7 -13 0 -17 -8 -5 -8 -13 -1 -27 7 -12
7 -19 1 -19 -7 0 -7 -9 -2 -22 5 -13 4 -35 -1 -50 -8 -23 -12 -25 -39 -18 -16
5 -29 5 -29 0 0 -4 -15 -5 -32 -1 -18 4 -48 4 -65 0 -18 -3 -33 -3 -33 2 0 4
-12 4 -28 0 -15 -5 -37 -5 -49 0 -13 5 -25 4 -28 -1 -3 -6 -15 -6 -30 0 -15 6
-27 6 -30 0 -3 -6 -15 -6 -30 0 -15 6 -27 6 -30 0 -3 -6 -15 -6 -30 0 -15 6
-27 6 -30 0 -3 -6 -15 -6 -30 0 -15 6 -27 6 -30 0 -3 -6 -15 -6 -30 0 -15 6
-27 6 -30 0 -3 -6 -15 -6 -30 0 -15 6 -27 6 -30 0 -3 -6 -15 -6 -30 0 -15 6
-27 6 -30 0 -3 -6 -15 -6 -30 0 -15 6 -27 6 -30 0 -3 -6 -15 -6 -30 0 -15 6
-27 6 -30 0 -3 -6 -15 -6 -30 0 -15 6 -27 6 -30 0 -3 -5 -15 -6 -28 -1 -12 5
-31 5 -42 1 -11 -4 -28 -3 -37 2 -10 5 -18 5 -18 0 0 -4 -10 -8 -22 -9 -54 -2
-94 -7 -108 -14 -8 -4 -28 -9 -45 -12 -16 -3 -57 -15 -90 -28 -33 -13 -63 -22
-67 -21 -5 1 -8 -2 -8 -7 0 -5 -10 -13 -22 -17 -33 -10 -147 -85 -187 -122
-18 -18 -35 -32 -37 -32 -7 0 -78 -81 -121 -139 -57 -76 -136 -237 -147 -301
-3 -14 -5 -25 -7 -25 -1 0 -3 -9 -5 -20 -1 -11 -6 -31 -10 -45 -4 -14 -9 -274
-11 -579 -4 -453 -2 -552 9 -548 7 2 23 0 36 -4 13 -5 22 -5 22 1 0 6 9 6 25
0 14 -5 25 -6 25 -2 0 9 65 6 80 -3 6 -3 10 -2 10 4 0 6 11 7 28 2 15 -4 39
-4 55 0 15 4 27 3 27 -2 0 -5 11 -4 25 1 17 6 25 6 25 -1 0 -6 6 -7 17 0 10 5
26 5 40 0 14 -5 23 -5 23 1 0 5 12 5 28 1 15 -4 39 -4 54 0 16 4 28 3 28 -2 0
-5 11 -4 25 1 17 6 25 6 25 -1 0 -6 6 -7 17 0 10 5 26 5 40 0 14 -5 23 -5 23
1 0 5 12 5 28 1 15 -4 39 -4 55 0 15 4 27 3 27 -2 0 -5 11 -4 25 1 17 6 25 6
25 -1 0 -6 6 -7 17 0 10 5 26 5 40 0 14 -5 23 -5 23 1 0 5 12 5 28 1 15 -4 39
-4 55 0 15 4 27 3 27 -2 0 -5 11 -4 25 1 17 6 25 6 25 -1 0 -6 6 -7 17 0 10 5
26 5 40 0 15 -5 23 -5 23 2 0 6 5 7 10 4 14 -9 155 -9 169 -1 6 4 11 2 11 -4
0 -7 6 -8 19 0 14 7 22 7 26 0 4 -6 12 -7 18 -3 6 4 21 7 32 7 11 0 26 -3 32
-7 6 -4 14 -3 18 2 3 6 15 7 28 2 12 -5 31 -5 42 -1 11 4 29 4 40 0 11 -4 30
-4 43 1 13 5 22 5 22 -2 0 -6 7 -6 19 1 14 7 22 7 26 0 4 -6 12 -7 18 -3 15 9
49 9 64 0 6 -4 14 -3 18 2 3 6 15 7 28 2 12 -5 31 -5 42 -1 11 4 29 4 40 0 11
-4 30 -4 43 1 13 5 22 5 22 -2 0 -6 7 -6 19 1 14 7 22 7 26 0 4 -6 12 -7 18
-3 15 9 49 9 64 0 6 -4 14 -3 18 2 3 6 15 7 28 2 12 -5 31 -5 42 -1 11 4 29 4
40 0 11 -4 30 -4 43 1 14 5 22 5 22 -2 0 -6 7 -6 19 1 14 7 22 7 26 0 4 -6 12
-7 18 -3 15 9 49 9 64 0 6 -4 14 -3 18 2 3 7 15 7 29 1 13 -5 26 -7 29 -4 9 9
62 11 85 2 13 -4 22 -4 22 2 0 6 9 6 25 0 14 -5 25 -6 25 -2 0 9 65 6 80 -3 6
-3 10 -2 10 4 0 6 11 7 28 2 15 -4 39 -4 55 0 15 4 27 3 27 -2 0 -5 11 -4 25
1 17 6 25 6 25 -1 0 -6 6 -7 17 0 10 5 26 5 40 0 14 -5 23 -5 23 1 0 5 12 5
28 1 15 -4 39 -4 55 0 15 4 27 3 27 -2 0 -5 11 -4 25 1 17 6 25 6 25 -1 0 -6
6 -7 17 0 10 5 26 5 40 0 14 -5 23 -5 23 1 0 5 12 5 28 1 15 -4 39 -4 55 0 15
4 27 3 27 -2 0 -5 11 -4 25 1 17 6 25 6 25 -1 0 -6 6 -7 17 0 10 5 26 5 40 0
14 -5 23 -5 23 1 0 5 12 5 28 1 15 -4 39 -4 55 0 15 4 27 3 27 -2 0 -5 11 -4
25 1 17 6 25 6 25 -1 0 -6 6 -7 17 0 10 5 26 5 40 0 15 -5 23 -5 23 2 0 6 5 7
10 4 14 -9 155 -9 169 -1 6 4 11 2 11 -4 0 -7 6 -8 19 0 14 7 22 7 26 0 4 -6
12 -7 18 -3 6 4 21 7 32 7 11 0 26 -3 32 -7 6 -4 14 -3 18 2 3 6 15 7 28 2 12
-5 31 -5 42 -1 11 4 29 4 40 0 11 -4 30 -4 43 1 13 5 22 5 22 -2 0 -6 7 -6 19
1 14 7 22 7 26 0 4 -6 12 -7 18 -3 15 9 49 9 64 0 6 -4 14 -3 18 2 3 7 15 7
29 1 13 -5 26 -6 29 -4 8 9 81 9 94 1 6 -4 14 -3 18 3 4 7 12 7 25 0 10 -6 21
-7 23 -3 6 9 59 9 73 0 6 -3 16 -2 24 3 8 5 21 5 31 -1 12 -6 20 -5 24 1 4 6
11 7 17 4 14 -9 113 -8 127 0 5 4 12 2 16 -4 4 -6 13 -7 23 -1 11 6 24 6 34 0
10 -6 19 -6 23 0 3 7 15 7 30 1 15 -6 27 -6 30 0 4 7 13 6 25 0 11 -6 21 -6
25 -1 3 5 17 6 33 2 15 -5 37 -5 49 0 13 5 25 4 28 -1 4 -6 13 -7 23 -1 11 6
24 6 34 0 11 -6 19 -6 23 1 4 7 12 7 25 0 11 -6 21 -6 25 -1 3 5 17 6 33 2 15
-5 37 -5 49 0 13 5 25 4 28 -1 4 -6 13 -7 23 -1 11 6 24 6 34 0 11 -6 19 -6
23 1 4 7 12 7 25 0 13 -7 21 -7 25 0 4 6 11 7 17 4 12 -8 188 -7 196 1 3 3 11
0 18 -6 8 -7 14 -7 19 1 4 7 12 7 25 0 10 -6 21 -7 23 -3 6 9 59 9 73 0 6 -3
16 -2 24 3 8 5 21 5 31 -1 12 -6 20 -5 24 1 4 6 11 7 17 4 14 -9 113 -8 127 0
5 4 12 2 16 -4 4 -6 13 -7 23 -1 11 6 24 6 34 0 10 -6 19 -6 23 0 3 7 15 7 30
1 15 -6 27 -6 30 0 4 7 13 6 25 0 11 -6 21 -6 25 -1 3 5 17 6 33 2 15 -5 37
-5 49 0 13 5 25 4 28 -1 4 -6 13 -7 23 -1 11 6 24 6 34 0 11 -6 19 -6 23 1 4
7 12 7 25 0 11 -6 21 -6 25 -1 3 5 17 6 33 2 15 -5 37 -5 49 0 13 5 25 4 28
-1 4 -6 13 -7 23 -1 11 6 24 6 34 0 11 -6 19 -6 23 1 4 7 12 7 25 0 13 -7 21
-7 25 0 4 6 11 7 17 4 12 -8 168 -8 175 0 3 3 16 1 29 -4 14 -6 24 -6 24 0 0
5 12 5 28 1 15 -5 37 -5 49 0 13 5 25 4 28 -1 4 -6 13 -7 23 -1 11 6 24 6 34
0 11 -6 19 -6 23 1 4 7 12 7 25 0 11 -6 21 -6 25 -1 3 5 17 6 33 2 15 -5 37
-5 49 0 13 5 25 4 28 -1 4 -6 13 -7 23 -1 11 6 24 6 34 0 11 -6 19 -6 23 1 4
7 12 7 25 0 11 -6 21 -6 25 -1 3 5 17 6 33 2 15 -5 37 -4 50 0 13 5 22 4 22
-1 0 -6 9 -6 25 0 16 6 25 6 25 0 0 -6 9 -6 25 0 15 6 26 6 30 0 4 -6 13 -7
23 -1 11 6 24 6 34 0 11 -6 19 -6 23 1 4 6 11 7 17 4 14 -9 113 -8 127 0 5 4
12 2 16 -4 4 -6 13 -7 23 -1 11 6 24 6 34 0 11 -6 19 -6 23 1 4 6 11 7 17 4
10 -6 99 -9 123 -4 6 1 15 1 20 0 23 -4 105 -1 115 5 5 3 10 1 10 -5 0 -7 6
-8 19 0 14 7 22 7 26 0 4 -6 12 -7 18 -3 15 9 49 9 64 0 6 -4 14 -3 18 2 3 6
15 7 28 2 12 -5 31 -5 42 -1 11 4 29 4 40 0 11 -4 30 -4 43 1 13 5 22 5 22 -2
0 -6 7 -6 19 1 14 7 22 7 26 0 4 -6 12 -7 18 -3 15 9 49 9 64 0 6 -4 14 -3 18
2 3 6 15 7 28 2 12 -5 32 -5 45 0 l23 9 -4 547 c-2 302 -6 557 -9 568 -4 11
-11 41 -17 67 -73 317 -331 587 -658 688 -36 11 -69 17 -74 14 -5 -3 -9 -1 -9
3 0 8 -38 14 -97 16 -13 1 -23 5 -23 9 0 5 -8 5 -17 0 -10 -5 -27 -6 -38 -2
-11 4 -30 4 -42 -1 -13 -5 -25 -4 -28 1 -3 6 -15 6 -30 0 -14 -5 -27 -5 -30 0
-3 5 -18 5 -33 0 -16 -4 -36 -4 -45 1 -9 6 -18 5 -22 0 -3 -7 -15 -7 -30 -1
-15 6 -27 6 -30 0 -3 -5 -15 -6 -28 -1 -12 5 -32 5 -44 0 -13 -5 -25 -4 -28 1
-3 6 -15 6 -30 0 -14 -5 -27 -5 -30 0 -3 5 -18 5 -33 0 -16 -4 -36 -4 -45 1
-9 6 -18 5 -22 0 -3 -7 -15 -7 -30 -1 -15 6 -27 6 -30 0 -3 -5 -15 -6 -28 -1
-12 5 -32 5 -44 0 -13 -5 -25 -4 -28 1 -3 6 -15 6 -30 0 -14 -5 -27 -5 -30 0
-3 5 -18 5 -33 0 -16 -4 -36 -4 -45 1 -9 6 -18 5 -21 0 -4 -6 -18 -6 -36 -1
-17 5 -30 5 -30 0 0 -4 -9 -6 -21 -3 -12 3 -18 11 -15 19 3 8 1 14 -5 14 -6 0
-6 7 1 20 7 13 7 20 1 20 -7 0 -7 9 -1 25 6 16 6 25 0 25 -6 0 -6 9 -1 23 5
13 5 30 1 37 -5 8 -5 19 0 25 5 6 5 17 0 25 -4 7 -4 24 1 37 5 14 5 23 -1 23
-6 0 -6 9 0 25 6 16 6 25 0 25 -6 0 -6 9 0 25 5 14 6 25 2 25 -4 0 -7 11 -7
25 0 14 3 25 7 25 4 0 3 12 -2 26 -6 14 -7 23 -2 21 8 -6 7 116 -2 138 -3 8
-1 15 5 15 6 0 7 5 4 11 -4 5 -9 29 -11 52 -7 74 -10 93 -18 105 -4 7 -5 12
-1 12 3 0 -3 17 -14 38 -10 20 -19 40 -19 45 -2 16 -55 107 -64 107 -4 0 -8 6
-8 13 0 17 -94 107 -157 151 -29 20 -55 36 -57 36 -2 0 -21 8 -42 17 -22 9
-42 18 -46 19 -5 1 -9 2 -10 4 -2 1 -10 3 -18 5 -8 2 -28 6 -45 10 -104 25
-300 8 -370 -32 -16 -9 -31 -16 -33 -14 -8 7 -117 -64 -166 -110 -47 -43 -140
-167 -141 -188 -1 -3 -6 -15 -12 -26 -24 -45 -42 -117 -47 -188 -2 -26 -6 -50
-9 -53 -3 -3 -2 -17 3 -30 6 -14 6 -24 0 -24 -5 0 -5 -12 0 -30 5 -18 5 -32
-1 -36 -6 -3 -6 -12 0 -22 5 -9 5 -26 1 -37 -5 -12 -5 -28 0 -35 5 -7 4 -24 0
-36 -6 -14 -5 -26 1 -29 5 -4 6 -13 0 -22 -5 -9 -5 -29 -1 -45 5 -15 5 -28 0
-28 -5 0 -5 -13 0 -30 5 -18 5 -32 -1 -36 -6 -3 -6 -12 0 -22 5 -9 5 -26 1
-37 -5 -12 -5 -28 0 -35 5 -7 4 -24 0 -36 -6 -14 -5 -26 0 -29 7 -4 7 -13 0
-24 -5 -10 -7 -21 -4 -24 3 -2 -254 -5 -571 -5 -317 1 -578 -2 -582 -5 -3 -4
-14 -2 -24 3 -11 7 -20 7 -24 0 -3 -5 -15 -6 -28 -2 -24 9 -56 8 -81 -1 -8 -3
-18 -2 -21 3 -3 6 -15 6 -30 0 -14 -5 -27 -5 -30 0 -3 5 -18 5 -33 0 -16 -4
-36 -4 -45 1 -9 6 -18 5 -22 0 -3 -7 -15 -7 -30 -1 -15 6 -27 6 -30 0 -3 -5
-15 -6 -28 -1 -12 5 -32 5 -44 0 -13 -5 -25 -4 -28 1 -3 6 -15 6 -30 0 -14 -5
-27 -5 -30 0 -3 5 -18 5 -33 0 -16 -4 -36 -4 -45 1 -9 6 -18 5 -22 0 -3 -7
-15 -7 -30 -1 -15 6 -27 6 -30 0 -3 -5 -15 -6 -28 -1 -12 5 -32 5 -44 0 -13
-5 -25 -4 -28 1 -3 6 -15 6 -30 0 -14 -5 -27 -5 -30 0 -3 5 -18 5 -33 0 -16
-4 -36 -4 -45 1 -9 6 -18 5 -22 0 -3 -7 -15 -7 -30 -1 -15 6 -27 6 -30 0 -3
-5 -15 -6 -28 -1 -12 5 -32 5 -44 0 -13 -5 -25 -4 -28 1 -3 6 -15 6 -30 0 -14
-5 -27 -5 -30 0 -3 5 -18 5 -33 0 -16 -4 -36 -4 -45 1 -9 6 -18 5 -22 0 -3 -7
-15 -7 -30 -1 -14 5 -27 5 -30 1 -3 -5 -13 -7 -23 -4 -18 4 -22 14 -22 48 0 8
0 22 0 30 0 8 0 21 0 28 -1 6 1 31 2 55 2 23 0 42 -4 42 -4 0 -3 14 2 30 5 17
5 30 0 30 -5 0 -5 13 0 30 5 17 5 30 0 30 -5 0 -5 13 0 30 5 17 5 30 0 30 -5
0 -5 13 0 30 5 17 6 30 2 30 -8 0 -7 68 1 76 3 3 2 17 -3 30 -6 14 -6 24 0 24
5 0 5 12 0 30 -5 18 -5 32 1 36 5 3 7 10 3 15 -3 6 -8 29 -10 52 -5 49 -12
102 -14 102 -1 0 -3 8 -5 17 -6 32 -85 188 -95 188 -6 0 -10 6 -10 13 0 17
-94 107 -157 151 -29 20 -55 36 -57 36 -2 0 -21 8 -42 17 -22 9 -42 18 -46 19
-5 1 -9 2 -10 4 -2 1 -10 3 -18 5 -8 2 -28 6 -45 10 -57 14 -219 13 -280 -1z"/>
<path d="M667 6402 l-27 -3 0 -2772 c1 -2726 1 -2773 20 -2857 22 -94 28 -115
30 -115 1 0 3 -7 5 -15 7 -34 66 -150 107 -210 60 -90 93 -127 188 -211 86
-76 296 -180 390 -194 14 -2 45 -8 70 -14 31 -7 1190 -10 3665 -10 3714 0
3636 -1 3780 33 53 12 232 89 245 105 3 3 25 19 48 34 70 45 180 156 236 237
54 77 116 197 116 224 0 8 4 17 9 20 5 3 12 20 15 38 3 18 8 44 11 58 3 14 10
50 15 80 6 34 10 1120 10 2814 0 2424 -2 2757 -15 2753 -8 -4 -17 -2 -20 3 -3
5 -15 6 -28 1 -12 -5 -32 -5 -44 0 -13 5 -25 4 -28 -1 -3 -6 -15 -6 -30 0 -15
6 -27 6 -30 0 -3 -6 -15 -6 -30 0 -15 6 -27 6 -30 0 -3 -6 -15 -6 -30 0 -15 6
-27 6 -30 0 -3 -6 -15 -6 -30 0 -15 6 -27 6 -30 0 -3 -6 -15 -6 -30 0 -15 6
-27 6 -30 0 -3 -6 -15 -6 -30 0 -15 6 -27 6 -30 0 -3 -6 -15 -6 -30 0 -15 6
-27 6 -30 -1 -4 -5 -11 -6 -17 -3 -14 9 -103 9 -117 0 -6 -4 -11 -3 -11 3 0 6
-11 6 -30 1 -17 -5 -32 -5 -35 0 -3 5 -15 6 -28 1 -13 -5 -30 -5 -38 -1 -8 5
-21 5 -29 0 -7 -4 -24 -4 -36 0 -14 6 -26 5 -29 0 -3 -5 -15 -6 -28 -1 -12 5
-32 5 -44 0 -13 -5 -23 -5 -23 1 0 5 -13 5 -30 0 -17 -5 -32 -5 -35 0 -3 5
-15 6 -28 1 -13 -5 -30 -5 -38 -1 -8 5 -21 5 -29 0 -7 -4 -24 -4 -36 0 -14 6
-26 5 -29 0 -3 -5 -15 -6 -28 -1 -12 5 -32 5 -44 0 -13 -5 -23 -5 -23 1 0 5
-13 5 -30 0 -17 -5 -32 -5 -35 0 -3 5 -15 6 -28 1 -13 -5 -30 -5 -38 -1 -8 5
-21 5 -29 0 -7 -4 -24 -4 -36 0 -14 6 -26 5 -29 0 -3 -5 -15 -6 -28 -1 -12 5
-32 5 -44 0 -13 -5 -23 -5 -23 1 0 5 -13 5 -30 0 -17 -5 -32 -5 -35 0 -3 5
-15 6 -28 1 -13 -5 -30 -5 -38 -1 -8 5 -21 5 -29 0 -7 -4 -24 -4 -36 0 -13 5
-25 6 -28 2 -5 -9 -81 -6 -95 3 -5 3 -12 1 -16 -4 -3 -7 -15 -7 -30 -1 -15 6
-27 6 -30 -1 -4 -5 -11 -6 -17 -3 -13 8 -1293 8 -1306 0 -6 -3 -13 -2 -17 3
-3 7 -15 7 -30 1 -15 -6 -27 -6 -30 0 -3 6 -15 6 -30 0 -15 -6 -27 -6 -30 0
-3 6 -15 6 -30 0 -15 -6 -27 -6 -30 0 -3 6 -15 6 -30 0 -15 -6 -27 -6 -30 0
-3 6 -15 6 -30 0 -15 -6 -27 -6 -30 0 -3 6 -15 6 -30 0 -15 -6 -27 -6 -30 0
-3 6 -15 6 -30 0 -15 -6 -27 -6 -30 0 -3 6 -15 6 -30 0 -15 -6 -27 -6 -30 0
-3 6 -15 6 -30 0 -15 -6 -27 -6 -30 0 -3 6 -15 6 -30 0 -15 -6 -27 -6 -30 0
-3 6 -15 6 -30 0 -15 -6 -27 -6 -30 0 -3 6 -15 6 -30 0 -15 -6 -27 -6 -30 0
-3 6 -15 6 -30 0 -15 -6 -27 -6 -30 0 -3 6 -15 6 -30 0 -15 -6 -27 -6 -30 0
-3 6 -15 6 -30 0 -15 -6 -27 -6 -30 0 -3 6 -15 6 -30 0 -15 -6 -27 -6 -30 0
-3 6 -15 6 -30 0 -13 -5 -26 -6 -29 -2 -3 5 -30 5 -61 2 -31 -3 -58 -3 -61 2
-3 4 -16 3 -29 -2 -15 -6 -27 -6 -30 0 -3 6 -15 6 -30 0 -15 -6 -27 -6 -30 0
-3 6 -15 6 -30 0 -15 -6 -27 -6 -30 0 -3 6 -15 6 -30 0 -15 -6 -27 -6 -30 0
-3 6 -15 6 -30 0 -15 -6 -27 -6 -30 0 -3 6 -15 6 -30 0 -15 -6 -27 -6 -30 0
-3 6 -15 6 -30 0 -15 -6 -27 -6 -30 0 -3 6 -15 6 -30 0 -15 -6 -27 -6 -30 0
-3 6 -15 6 -30 0 -15 -6 -27 -6 -30 0 -3 6 -15 6 -30 0 -15 -6 -27 -6 -30 0
-3 6 -15 6 -30 0 -15 -6 -27 -6 -30 0 -3 6 -15 6 -30 0 -15 -6 -27 -6 -30 0
-3 6 -15 6 -30 0 -15 -6 -27 -6 -30 0 -3 6 -15 6 -30 0 -15 -6 -27 -6 -30 0
-3 6 -15 6 -30 0 -15 -6 -27 -6 -30 0 -3 6 -15 6 -30 0 -15 -6 -27 -6 -30 0
-3 6 -15 6 -29 0 -13 -5 -26 -6 -30 -3 -7 7 -1341 7 -1353 0 -5 -3 -15 -2 -23
3 -8 5 -21 5 -30 0 -9 -5 -22 -5 -28 -1 -7 4 -33 5 -58 1 -24 -4 -47 -3 -50 1
-2 5 -16 4 -29 -1 -15 -6 -27 -6 -30 0 -3 6 -15 6 -30 0 -15 -6 -27 -6 -30 0
-3 6 -15 6 -30 0 -15 -6 -27 -6 -30 0 -3 6 -15 6 -30 0 -15 -6 -27 -6 -30 0
-3 6 -15 6 -30 0 -15 -6 -27 -6 -30 0 -3 6 -15 6 -30 0 -15 -6 -27 -6 -30 0
-3 6 -15 6 -30 0 -15 -6 -27 -6 -30 0 -3 6 -15 6 -30 0 -15 -6 -27 -6 -30 0
-3 6 -15 6 -30 0 -15 -6 -27 -6 -30 0 -3 6 -15 6 -30 0 -15 -6 -27 -6 -30 0
-3 6 -15 6 -30 0 -15 -6 -27 -6 -30 0 -3 6 -15 6 -30 0 -15 -6 -27 -6 -30 0
-3 6 -15 6 -30 0 -15 -6 -27 -6 -30 0 -3 6 -15 6 -30 0 -15 -6 -27 -6 -30 0
-3 6 -15 6 -30 0 -15 -6 -27 -6 -30 0 -3 6 -15 6 -30 0 -15 -6 -27 -6 -30 0
-3 6 -15 6 -29 0 -13 -5 -26 -6 -30 -3 -5 6 -770 10 -819 5z"/>
</g>
</svg>
